#tb 0: 1/25
0,          0,          0,        1,   152064, 0xf973b384
0,          1,          1,        1,   152064, 0x84418532
0,          2,          2,        1,   152064, 0x63165bc0
0,          3,          3,        1,   152064, 0x54b5049d
0,          4,          4,        1,   152064, 0xde66dbbc
0,          5,          5,        1,   152064, 0x8001a4f5
0,          6,          6,        1,   152064, 0x6b5259b7
0,          7,          7,        1,   152064, 0xd15137a1
0,          8,          8,        1,   152064, 0x1d19fdb9
0,          9,          9,        1,   152064, 0x3533d5a1
0,         10,         10,        1,   152064, 0xf82ba039
0,         11,         11,        1,   152064, 0x04366ee9
0,         12,         12,        1,   152064, 0xf7ac1dfb
0,         13,         13,        1,   152064, 0x6d0aebd7
0,         14,         14,        1,   152064, 0x4f2bb62d
0,         15,         15,        1,   152064, 0x6a7a7d50
0,         16,         16,        1,   152064, 0xc9c95422
0,         17,         17,        1,   152064, 0x35a13150
0,         18,         18,        1,   152064, 0xb576f7e4
0,         19,         19,        1,   152064, 0x5ad3cde5
0,         20,         20,        1,   152064, 0xbcb18908
0,         21,         21,        1,   152064, 0xa2a24ca7
0,         22,         22,        1,   152064, 0x95700ea5
0,         23,         23,        1,   152064, 0xfdb5e316
0,         24,         24,        1,   152064, 0x56e3a003
0,         25,         25,        1,   152064, 0x09ae905c
0,         26,         26,        1,   152064, 0xa1175024
0,         27,         27,        1,   152064, 0x8b82395e
0,         28,         28,        1,   152064, 0x032202da
0,         29,         29,        1,   152064, 0xae15e5e7
